<?xml version="1.0" standalone="no"?>
<!DOCTYPE svg PUBLIC "-//W3C//DTD SVG 20010904//EN"
 "http://www.w3.org/TR/2001/REC-SVG-20010904/DTD/svg10.dtd">
<svg version="1.0" xmlns="http://www.w3.org/2000/svg"
 width="309.000000pt" height="309.000000pt" viewBox="0 0 309.000000 309.000000"
 preserveAspectRatio="xMidYMid meet">
<metadata>
Created by potrace 1.11, written by Peter Selinger 2001-2013
</metadata>
<g transform="translate(0.000000,309.000000) scale(0.100000,-0.100000)"
fill="#000000" stroke="none">
<path d="M1377 2917 c-55 -56 -103 -109 -108 -117 -5 -8 -9 -12 -9 -8 0 4
-134 -127 -297 -290 -164 -163 -296 -300 -295 -304 1 -5 -2 -8 -7 -8 -19 0
-661 -649 -661 -669 0 -18 8 -19 165 -17 143 2 165 0 166 -13 0 -9 1 -329 2
-711 l2 -695 1178 -2 c1092 -1 1178 0 1185 15 5 9 8 305 7 657 -1 352 2 645 6
650 5 7 77 10 193 9 149 -1 186 1 186 12 0 20 -1578 1594 -1598 1593 -9 0 -61
-46 -115 -102z m221 -982 c17 -3 47 -8 65 -11 46 -8 143 -53 163 -75 9 -11 22
-19 28 -19 6 -1 19 -11 28 -23 10 -12 29 -35 43 -52 14 -16 25 -33 25 -37 0
-4 24 -4 53 -1 116 12 234 6 288 -15 15 -6 30 -8 33 -5 3 4 6 2 6 -3 0 -6 16
-16 35 -23 48 -17 68 -58 67 -141 0 -88 -27 -134 -125 -217 -21 -18 -111 -69
-137 -79 -3 -1 -15 -5 -27 -9 -26 -8 -21 -25 7 -25 30 0 99 -42 126 -77 14
-18 21 -33 17 -33 -4 0 -2 -4 6 -9 8 -5 15 -27 16 -50 1 -23 5 -44 8 -48 4 -3
2 -12 -4 -20 -9 -10 -8 -13 0 -13 7 0 9 -5 4 -12 -4 -7 -6 -22 -5 -33 3 -20
-38 -75 -55 -75 -16 0 -35 50 -20 51 9 0 9 2 0 6 -9 3 -10 10 -3 24 7 12 7 19
1 19 -5 0 -8 11 -5 25 4 25 -9 34 -21 14 -4 -6 -13 -8 -21 -5 -8 3 -14 2 -14
-2 0 -9 -97 -39 -150 -47 -19 -3 -57 -9 -85 -14 -27 -5 -53 -7 -57 -4 -5 2 -8
1 -8 -4 0 -4 -25 -7 -55 -7 -88 2 -90 -2 -92 -163 -2 -134 -8 -207 -19 -224
-3 -5 -1 -9 5 -9 6 0 6 -12 1 -33 -5 -17 -11 -52 -13 -77 -6 -54 -16 -80 -29
-80 -5 0 -7 -4 -4 -9 9 -14 -54 -33 -109 -33 -27 0 -52 2 -55 3 -3 1 -9 3 -15
4 -5 1 -28 10 -50 20 -22 10 -42 19 -45 20 -3 0 -21 9 -40 20 -19 11 -38 18
-42 17 -5 -1 -8 3 -8 8 0 6 -6 10 -13 10 -7 0 -23 9 -35 20 -12 12 -22 18 -22
15 0 -3 -13 2 -30 12 -16 9 -30 21 -30 25 0 4 -5 8 -10 8 -12 0 -25 10 -68 50
-14 14 -27 24 -29 23 -8 -7 -21 0 -58 32 -22 19 -43 35 -46 35 -7 0 -54 39
-100 83 -16 15 -29 25 -29 22 0 -5 -20 11 -86 70 -12 11 -36 31 -53 45 -17 14
-47 40 -66 59 -33 31 -34 34 -18 47 10 7 15 14 11 14 -3 0 8 15 25 34 18 19
37 41 42 48 50 65 65 88 65 98 0 6 7 13 15 16 8 4 15 12 15 20 0 8 11 32 25
54 14 22 24 43 23 47 0 5 8 28 20 53 12 25 22 51 22 58 0 6 4 12 10 12 5 0 9
3 8 8 0 4 7 25 17 47 10 22 20 43 21 48 1 4 3 10 4 15 1 4 2 11 1 15 -1 5 3 6
9 2 9 -6 14 7 11 28 0 4 4 7 10 7 5 0 7 5 4 10 -3 6 -3 10 2 10 4 0 14 14 21
30 8 17 17 28 22 25 5 -3 7 2 6 12 -2 9 4 24 13 33 9 9 23 27 31 40 30 46 136
146 173 163 20 10 37 23 37 29 0 6 3 9 6 5 3 -3 21 3 40 14 19 10 45 21 59 23
13 3 29 7 35 11 5 3 10 1 10 -6 0 -7 4 -8 13 -2 6 5 30 11 52 12 22 2 42 4 43
6 2 2 9 2 15 0 7 -2 27 -7 45 -10z"/>
<path d="M1439 1538 c-1 -7 -3 -23 -4 -35 -1 -12 4 -24 11 -27 9 -3 11 5 9 30
-2 18 1 31 6 28 5 -3 9 0 9 5 0 15 -30 14 -31 -1z"/>
<path d="M1430 1450 c13 -24 13 -33 -1 -24 -8 4 -8 0 0 -15 7 -12 9 -26 6 -31
-3 -5 -1 -11 5 -15 5 -3 10 -11 10 -16 0 -6 -4 -7 -10 -4 -6 3 -7 -1 -4 -9 3
-9 10 -16 15 -16 5 0 9 -5 9 -11 0 -5 -6 -7 -12 -3 -10 6 -10 4 0 -8 7 -9 9
-19 4 -22 -14 -8 -2 -53 14 -53 8 0 14 4 14 9 0 4 -3 8 -7 8 -5 0 -8 19 -9 43
-1 46 -14 148 -20 159 -2 3 1 8 8 10 7 3 3 7 -10 10 -19 5 -20 3 -12 -12z"/>
<path d="M1000 1360 c-8 -5 -10 -10 -5 -10 6 0 3 -5 -5 -10 -13 -9 -12 -12 4
-25 11 -8 15 -15 10 -15 -6 0 -11 -7 -11 -15 0 -8 4 -15 7 -15 7 0 10 -23 11
-72 0 -10 5 -18 10 -18 6 0 8 -4 5 -8 -6 -11 60 -143 76 -154 7 -4 9 -8 5 -8
-16 0 48 -48 88 -66 39 -17 150 -28 170 -16 6 4 16 7 23 8 18 3 62 52 62 70 0
7 4 14 8 14 5 0 9 6 9 13 1 6 4 28 8 47 3 19 6 44 5 55 0 11 -1 32 -1 47 0 29
-14 45 -24 28 -3 -5 -1 -10 5 -10 6 0 8 -5 3 -12 -10 -17 -10 -39 0 -62 6 -12
5 -16 -1 -12 -7 4 -10 -4 -8 -21 4 -32 -10 -74 -27 -85 -9 -6 -8 -8 3 -8 10 0
7 -5 -8 -16 -12 -8 -20 -20 -16 -25 3 -6 0 -9 -7 -8 -8 1 -27 -1 -42 -6 -49
-13 -102 -10 -99 6 3 11 1 11 -8 2 -10 -9 -20 -7 -45 7 -61 34 -75 45 -75 57
0 7 -8 17 -17 22 -10 6 -14 11 -10 11 5 0 1 7 -8 16 -9 9 -14 23 -11 31 3 8 2
12 -3 9 -8 -5 -30 28 -35 54 -1 8 -8 35 -15 59 -19 67 -23 133 -9 143 7 4 9 8
3 8 -5 0 -17 -5 -25 -10z"/>
</g>
</svg>
